<svg xmlns="http://www.w3.org/2000/svg" viewBox="0 0 255.33 127.44"><defs><style>.cls-1{font-size:63.9px;font-family:SourceSansPro-Black, Source Sans Pro;letter-spacing:-0.01em;}.cls-1,.cls-3{fill:#fff;}.cls-2{letter-spacing:0em;}</style></defs><title>logo-app</title><g id="Laag_2" data-name="Laag 2"><g id="Layer_1" data-name="Layer 1"><text class="cls-1" transform="translate(70.33 106.67)">L<tspan class="cls-2" x="32.91" y="0">oSOS</tspan></text><line class="cls-3" x1="51.39" y1="18.58" x2="51.39" y2="28.95"/><path class="cls-3" d="M51.64,46.48a7.42,7.42,0,0,1,7.42,7.42h10A17.43,17.43,0,0,0,51.64,36.47Z"/><path class="cls-3" d="M51.64,31.41A22.49,22.49,0,0,1,74.14,53.9H86.51A34.87,34.87,0,0,0,51.64,19Z"/><path class="cls-3" d="M51.64,13.46A40.44,40.44,0,0,1,92.08,53.9h13.46A53.9,53.9,0,0,0,51.64,0Z"/><polygon class="cls-3" points="63.07 65.73 63.07 82.13 39.74 82.13 39.74 105.47 23.33 105.47 23.33 82.13 0 82.13 0 65.73 23.33 65.73 23.33 42.4 39.74 42.4 39.74 65.73 63.07 65.73"/></g></g></svg>