<?xml version="1.0" encoding="utf-8"?>
<!-- Generator: Adobe Illustrator 22.1.0, SVG Export Plug-In . SVG Version: 6.00 Build 0)  -->
<svg version="1.1" id="Laag_1" xmlns="http://www.w3.org/2000/svg" xmlns:xlink="http://www.w3.org/1999/xlink" x="0px" y="0px"
	 viewBox="0 0 439.4 439.4" style="enable-background:new 0 0 439.4 439.4;" xml:space="preserve">
<style type="text/css">
	.st0{fill:#FFFFFF;stroke:#FFFFFF;stroke-width:10;stroke-miterlimit:10;}
	.st1{fill:none;stroke:#237F35;stroke-width:12;stroke-miterlimit:10;}
	.st2{fill:#FFFFFF;stroke:#237F35;stroke-width:14;stroke-miterlimit:10;}
	.st3{fill:#237F35;}
	.st4{fill:#237F35;stroke:#237F35;stroke-width:3;stroke-miterlimit:10;}
</style>
<g>
	<path class="st0" d="M409.7,432.3H29.6c-12.4,0-22.5-10.1-22.5-22.5V29.6c0-12.4,10.1-22.5,22.5-22.5h380.1
		c12.4,0,22.5,10.1,22.5,22.5v380.1C432.3,422.1,422.1,432.3,409.7,432.3z"/>
	<g>
		<path class="st1" d="M222.4,202c13.6,0,24.7,11,24.7,24.7h33.3c0-32-26-58-58-58V202z"/>
		<g>
			<path class="st1" d="M223.4,150.8c41.3,0,74.8,33.5,74.8,74.8h41.1c0-64-51.9-115.9-115.9-115.9V150.8z"/>
			<path class="st1" d="M223.4,91.2c74.3,0,134.5,60.2,134.5,134.5h44.8c0-99-80.2-179.2-179.2-179.2V91.2z"/>
		</g>
		<polygon class="st2" points="261.4,265 261.4,319.5 183.9,319.5 183.9,397.1 129.3,397.1 129.3,319.5 51.7,319.5 51.7,265 
			129.3,265 129.3,187.4 183.9,187.4 183.9,265 		"/>
	</g>
</g>
<g>
	<path class="st0" d="M-114.9,432.3h-379.7c-12.5,0-22.7-10.2-22.7-22.7V29.8c0-12.5,10.2-22.7,22.7-22.7h379.7
		c12.5,0,22.7,10.2,22.7,22.7v379.7C-92.2,422.1-102.4,432.3-114.9,432.3z"/>
	<path class="st3" d="M-173.5,207c-27.8,0-50.4-22.6-50.4-50.4s22.6-50.4,50.4-50.4s50.4,22.6,50.4,50.4S-145.7,207-173.5,207z
		 M-173.5,124.5c-17.7,0-32.1,14.4-32.1,32.1s14.4,32.1,32.1,32.1s32.1-14.4,32.1-32.1S-155.8,124.5-173.5,124.5z"/>
	<path class="st3" d="M-173.5,353.6c-14.7,0-27.5-10-31.1-24.3l-9.8-36.1c-15.4,23.1-45.1,56.9-82.5,45.4l-86.1-24.6l-63.4,23.8
		c-16.6,6.2-35.1-2.2-41.3-18.8c-6.2-16.6,2.2-35.1,18.8-41.3l0,0l73.3-27.5c6.1-2.3,12.8-2.7,19.1-1.1l-11-12.4l-66.3-13.7
		c-17.4-3.3-28.8-20.1-25.5-37.5s20.1-28.8,37.5-25.5c0.4,0.1,0.8,0.2,1.2,0.3l76.7,16c6.7,1.4,12.8,4.9,17.4,10l49,52.7l32.1-38.6
		l-51.5-29.4c-15.5-8.3-21.4-27.6-13.2-43.2c8.1-15.7,27.5-21.9,43.2-13.8c0,0,0.1,0,0.1,0l81,42.4l-8.5,16.5l-81-42.4
		c-6.7-3.5-15.1-0.9-18.6,5.8c-3.5,6.7-0.9,15.1,5.8,18.6l70.8,40.3l-59.5,71.3l-63.3-68c-2-2.3-4.6-3.9-7.6-4.6l-76.7-15.9
		c-7.5-1.3-14.6,3.6-16,11.1c-1.3,7.2,3.2,14.1,10.3,15.8l72.2,15.1l57.1,64.2l-59.6-17.1c-2.8-0.8-5.9-0.7-8.6,0.4l-73.3,27.5
		c-7.1,2.7-10.7,10.6-8,17.7c2.7,7.1,10.6,10.7,17.7,8l69.1-25.9l91.6,26.3c39.6,12.1,72.1-54.6,72.6-55.4l10.7-22.4l21.9,81.4
		c1.7,7.4,9.2,12,16.5,10.2c0.1,0,0.1,0,0.2,0c7.4-1.8,11.8-9.3,10-16.7c0,0,0,0,0,0l-29.2-115.8l17.8-4.6l29,115.9
		c4.3,17.2-6.1,34.6-23.3,38.9C-168.3,353.3-170.9,353.6-173.5,353.6z"/>
	<polygon class="st3" points="-407.3,70.5 -415,111.4 -416.4,106.9 -393.7,138.8 -392.8,139.9 -393.1,140.9 -398.1,161.2 
		-398.5,140.2 -397.9,142.3 -425.6,114.6 -427,113.1 -426.9,110.1 -425.5,68.5 	"/>
	<polygon class="st3" points="-351.2,105.5 -375.2,121.3 -373.5,114.4 -365.4,141.1 -364.8,143.2 -366,144.1 -382.4,157.1 
		-369.9,140.3 -370.5,143.3 -384.5,119.1 -386.4,115.8 -382.8,112.1 -363,91.4 	"/>
	<polygon class="st3" points="-442.1,99.3 -441.4,134.4 -446.5,129.2 -420.8,135.8 -418.7,136.4 -418.5,137.8 -417.1,154.2 
		-423.9,139.2 -421.6,141.2 -448.1,141 -452.1,141 -453.2,135.8 -460.4,101.3 	"/>
</g>
<g>
	<path class="st0" d="M913.8,432.9H534.2c-12.5,0-22.8-10.3-22.8-22.8V30.5c0-12.5,10.3-22.8,22.8-22.8h379.6
		c12.5,0,22.8,10.3,22.8,22.8v379.6C936.6,422.6,926.3,432.9,913.8,432.9z"/>
	<g transform="translate(0,-280.06665)">
		<path class="st4" d="M646.6,498.8c-41.4,0-74.8,33.5-74.8,74.9v0c0.2,21.9,0,45.8,0,68.4v6.4h308.3v-6.4c0-22.4,0-46.5,0-68.4
			c0-41.4-33.5-74.9-74.8-74.9L646.6,498.8z M646.6,511.7h158.7c34.5,0,62,27.6,62,62c0,19.8,0,41.4,0,62H584.7c0-20.6,0.1-42,0-62
			C584.7,539.2,612.2,511.7,646.6,511.7z"/>
		<path class="st4" d="M726.2,340.2c-41.2,0-74.8,33.5-74.8,74.8s33.5,74.8,74.8,74.8c41.2,0,74.8-33.5,74.8-74.8
			S767.4,340.2,726.2,340.2z M726.2,353.1c34.3,0,62,27.6,62,61.9s-27.7,61.9-62,61.9c-34.3,0-61.9-27.6-61.9-61.9
			S691.9,353.1,726.2,353.1z"/>
		<path class="st4" d="M644,416.9c0,0-6.9-2.3-12.9,1.9s-9.9,12.9-9.9,28.8c0,16.2,4.6,41.6,20.1,63.7
			c15.4,22.1,42.3,40.4,84.1,40.4c3.5,0,6.4-2.9,6.4-6.4c0-3.5-2.9-6.4-6.4-6.4c0,0,0,0,0,0c-38.2,0-60.2-15.6-73.6-34.9
			c-13.4-19.3-17.7-42.7-17.7-56.4c0-13.9,3.3-17.5,4.3-18.2c1-0.7,1.3-0.4,1.3-0.4c3.3,1.4,7-0.1,8.5-3.3c1.4-3.3-0.1-7-3.3-8.5
			C644.5,417,644.3,417,644,416.9z"/>
		<path class="st4" d="M806.7,416.9c-3.4,1-5.3,4.6-4.3,8s4.6,5.3,8,4.3c0.2-0.1,0.5-0.2,0.7-0.3c0,0,0.3-0.3,1.3,0.4
			c1,0.7,4.3,4.3,4.3,18.2c0,13.6-4.3,37.1-17.7,56.4c-13.4,19.3-35.4,34.9-73.6,34.9c-3.5,0-6.4,2.9-6.4,6.4c0,3.5,2.9,6.4,6.4,6.4
			c0,0,0,0,0,0c41.8,0,68.7-18.3,84.1-40.4c15.4-22.1,20.1-47.5,20.1-63.7c0-15.9-3.8-24.7-9.9-28.8S806.7,416.9,806.7,416.9z"/>
		<path class="st4" d="M724.6,538.8c-3.3,0.4-5.7,3.2-5.7,6.5v58.9c0,3.5,2.9,6.4,6.4,6.4s6.4-2.9,6.4-6.4v-58.9
			c0.1-3.5-2.8-6.5-6.3-6.5C725.1,538.7,724.9,538.8,724.6,538.8z"/>
		<path class="st4" d="M726.2,594.9c-9.6,0-17.5,8-17.5,17.6c0,9.6,7.9,17.6,17.5,17.6c9.6,0,17.6-8,17.6-17.6
			C743.8,602.9,735.8,594.9,726.2,594.9z M726.2,607.8c2.7,0,4.7,2.1,4.7,4.7s-2.1,4.7-4.7,4.7c-2.7,0-4.7-2.1-4.7-4.7
			S723.5,607.8,726.2,607.8z"/>
		<path class="st4" d="M791.7,568.5v12.9h46.5v-12.9H791.7z"/>
	</g>
</g>
</svg>
